<?xml version="1.0" encoding="UTF-8"?>
<svg id="Layer_2" data-name="Layer 2" xmlns="http://www.w3.org/2000/svg" viewBox="0 0 213.14 176.52">
  <g id="Layer_1-2" data-name="Layer 1">
    <path d="m79.27,145.54c.53-.94,1.04-1.69,1.4-2.51,2.52-5.76,5.01-11.54,7.52-17.31,2.07-4.78,4.16-9.56,6.22-14.35.98-2.27,2.2-4.48,2.83-6.85.87-3.28,3.04-5.45,5.36-7.61.06-.06.1-.16.17-.18,2.04-.48,3.96-1.88,6.16-1.16,2.52.83,5.04,1.84,6.48,4.29,1.05,1.79,1.98,3.65,2.85,5.53,1.4,3.06,2.74,6.15,4.05,9.25,1.02,2.43,1.92,4.92,2.94,7.36,1.63,3.88,3.35,7.71,4.97,11.59.86,2.06,1.57,4.18,2.38,6.26.3.77.71,1.49,1.04,2.25.29.68.47,1.41.83,2.04.25.43.67.92,1.11,1.05.76.22.69-.5.88-1.01.68-1.85,1.43-3.68,2.19-5.5,1.61-3.89,3.22-7.79,4.87-11.67.75-1.75,1.65-3.44,2.4-5.19,1.9-4.5,3.73-9.03,5.63-13.53,1.08-2.55,2.25-5.06,3.34-7.61,1.21-2.84,2.33-5.72,3.56-8.55,1.03-2.39,2.16-4.74,3.23-7.11,1.23-2.72,2.47-5.43,3.66-8.16,3.28-7.52,6.54-15.04,9.79-22.58,1.48-3.43,2.87-6.89,4.35-10.32.81-1.88,1.76-3.7,2.6-5.58.69-1.55,1.28-3.14,1.94-4.7.88-2.08,1.92-4.1,2.65-6.23.56-1.65,1.36-3.14,2.18-4.66.36-.66.31-1.6.25-2.4-.02-.24-.71-.59-1.1-.6-2.03-.06-4.07-.03-6.1-.03-5.6,0-11.2,0-16.81,0-2.61,0-4.69-1.2-6.54-2.89-.67-.61-1.22-1.36-1.82-2.04-.05-.06-.15-.12-.16-.18-.28-1.68-.84-3.37-.77-5.03.14-3.22,2.13-5.53,4.62-7.28,1.16-.81,2.41-1.6,4.11-1.59,3.31.01,6.61-.41,9.92-.56,2.61-.12,5.23-.13,7.84-.14,5.93-.02,11.87-.05,17.8,0,1.35.01,2.69.34,4.04.53.45.06.91.26,1.34.19,2.04-.29,3.41.85,4.6,2.21,1.05,1.21,1.93,2.56,2.84,3.88.19.28.23.7.24,1.06.03.87.02,1.74.01,2.61,0,1.15-.08,2.17-.77,3.27-.98,1.57-1.47,3.45-2.18,5.2-1.24,3.05-2.47,6.11-3.74,9.15-1.72,4.08-3.48,8.14-5.22,12.21-1.49,3.46-2.97,6.92-4.47,10.38-1.81,4.19-3.62,8.37-5.43,12.56-1.89,4.38-3.78,8.76-5.66,13.14-2.26,5.29-4.48,10.61-6.76,15.89-1.81,4.19-3.72,8.33-5.52,12.52-2.16,5.03-4.21,10.1-6.36,15.12-1.35,3.16-2.85,6.26-4.2,9.43-1.26,2.97-2.41,5.98-3.62,8.97-.43,1.07-.93,2.12-1.37,3.19-.86,2.09-1.67,4.2-2.55,6.28-.43,1.03-.99,2-1.44,3.01-1.12,2.51-2.21,5.03-3.31,7.55-.92,2.09-1.86,4.16-2.75,6.26-.83,1.96-1.47,4-2.45,5.88-.75,1.44-1.74,2.82-2.88,3.97-.94.95-2.17,1.68-3.65,1.66-1.48-.03-2.96.02-4.44,0-2.93-.06-5.92-2.36-7.01-5.2-.57-1.49-1.4-2.87-2.05-4.33-.63-1.42-1.15-2.89-1.8-4.3-.5-1.1-1.13-2.15-1.7-3.22-.1-.18-.27-.36-.28-.54-.12-2.55-1.91-4.38-2.8-6.59-.77-1.9-1.51-3.81-2.29-5.71-.33-.8-.69-1.59-1.06-2.37-1.2-2.51-2.44-5-3.6-7.53-.83-1.8-1.52-3.67-2.36-5.48-.25-.54-.7-1.06-1.19-1.39-.62-.42-1.19-.14-1.51.55-1.32,2.81-2.66,5.61-3.95,8.43-1.42,3.1-2.74,6.24-4.18,9.33-2.53,5.46-5.14,10.88-7.66,16.34-.88,1.92-1.62,3.9-2.4,5.87-1.03,2.62-2.91,4.5-5.26,5.93-.29.18-.74.09-1.08.21-2.05.74-4.09-.15-6.13-.02-.42.03-.96-.08-1.28-.33-2.27-1.83-4.34-3.76-5.27-6.73-.57-1.81-1.75-3.42-2.6-5.15-.74-1.51-1.41-3.05-2.1-4.58-1.54-3.4-3.08-6.81-4.62-10.21-.15-.34-.29-.68-.42-1.03-.42-1.14-.75-2.32-1.27-3.42-1.11-2.39-2.41-4.69-3.46-7.1-1.52-3.47-2.84-7.03-4.35-10.5-1.98-4.55-4.08-9.06-6.1-13.6-1.35-3.02-2.63-6.08-3.96-9.11-2.23-5.08-4.5-10.15-6.7-15.24-1.43-3.3-2.74-6.66-4.19-9.96-1.69-3.87-3.48-7.7-5.22-11.54-.53-1.17-1.06-2.34-1.57-3.52-2.03-4.63-4.04-9.26-6.08-13.88-1.2-2.71-2.48-5.39-3.69-8.1-1.67-3.72-3.37-7.44-4.97-11.19-1.2-2.84-2.22-5.75-3.4-8.6-.61-1.48-1.46-2.85-2.1-4.32-.63-1.42-1.15-2.89-1.69-4.35C.63,12.73-.05,11.68,0,10.66.17,7.26,1.45,4.24,4.28,2.21c1.02-.73,2.29-1.18,3.68-1.47,6.8-1.4,13.61-.35,20.41-.5,3.69-.08,7.38-.18,11.07-.11,1.51.03,3.01.44,4.5.73,1.33.26,2.66.52,3.95.93,3.58,1.14,6.12,3.57,7.82,6.84,1.14,2.2,2.03,4.53,3.02,6.8,1.22,2.81,2.45,5.62,3.63,8.45,1.15,2.73,2.19,5.52,3.41,8.22.37.82.77,1.6,1.12,2.45,2.19,5.42,4.54,10.78,6.85,16.16.34.8.65,1.62,1.11,2.35.29.46.83.76,1.25,1.13.3-.35.71-.66.89-1.07.57-1.28,1.06-2.6,1.56-3.91.81-2.11,1.58-4.23,2.4-6.34.85-2.2,1.71-4.39,2.58-6.57.82-2.05,1.69-4.09,2.51-6.14.52-1.3,1-2.61,1.5-3.92.89-2.36,1.78-4.72,2.65-7.09,1.16-3.17,2.24-6.38,3.47-9.52,1.37-3.49,3.02-6.8,7.1-7.87,1.34-.35,2.7-.84,4.06-.88,3.07-.08,6.66,2.47,7.81,5.24.25.6.69,1.13.95,1.73,1.34,3.12,2.41,6.38,4.05,9.32,1.07,1.91,1.33,4.1,2.65,5.92,1.03,1.42,1.34,3.34,2.06,5,2.59,6,5.24,11.98,7.83,17.98,1.71,3.96,3.32,7.96,5.03,11.91,2.25,5.21,4.61,10.37,6.82,15.6,1.24,2.93,2.33,5.93,3.4,8.93.45,1.26,1.18,2.73.89,3.88-.52,2.07-1.17,4.23-3.16,5.65-1.51,1.07-3.22,1.56-4.88,2.22-.19.08-.42.19-.6.14-1.41-.38-2.85-.69-4.22-1.2-2.79-1.04-4.03-3.49-5.11-6.01-.98-2.28-1.91-4.59-2.89-6.88-.32-.75-.73-1.46-1.06-2.2-1.08-2.43-2.15-4.87-3.21-7.31-.89-2.04-1.74-4.1-2.64-6.14-1.24-2.81-2.54-5.58-3.76-8.4-.84-1.94-1.56-3.94-2.36-5.9-.98-2.4-1.95-4.8-2.99-7.17-.98-2.25-1.99-4.48-3.07-6.67-.27-.56-.82-1.04-1.35-1.39-.62-.39-1.12-.22-1.41.59-.82,2.29-1.73,4.55-2.59,6.83-.85,2.23-1.66,4.47-2.54,6.69-.38.96-.92,1.85-1.31,2.81-.61,1.52-1.13,3.08-1.72,4.61-.44,1.15-.96,2.26-1.39,3.41-.84,2.29-1.63,4.61-2.47,6.9-.3.82-.69,1.6-1.02,2.4-.51,1.23-.99,2.47-1.5,3.7-.09.23-.34.43-.34.65-.04,1.7-1.28,2.89-1.84,4.37-.07.19-.18.38-.22.58-.66,3.28-2.57,5.82-5.26,7.57-1.75,1.13-3.91,1.72-6.12,1.29-.3-.06-.57-.29-.85-.45-.32-.17-.63-.49-.95-.5-2.71-.03-3.72-2.13-4.82-4.01-.94-1.61-1.67-3.35-2.43-5.06-.89-2.03-1.7-4.09-2.57-6.13-.79-1.86-1.61-3.71-2.41-5.57-1.2-2.78-2.38-5.57-3.59-8.35-.33-.75-.73-1.47-1.05-2.22-.93-2.13-1.82-4.28-2.79-6.39-.51-1.11-1.16-2.16-1.73-3.24-.13-.25-.23-.52-.33-.79-.47-1.26-.88-2.54-1.4-3.78-1.19-2.79-2.42-5.56-3.67-8.32-.66-1.45-1.41-2.86-2.07-4.31-.65-1.44-1.21-2.91-1.84-4.36-.41-.94-.79-1.9-1.3-2.79-.54-.93-1.35-1.47-2.55-1.47-4.4-.02-8.79-.15-13.19-.18-.59,0-1.19.38-1.79.59.21.57.41,1.14.64,1.7.65,1.55,1.32,3.09,1.99,4.64,1.6,3.69,3.19,7.38,4.8,11.07,2.83,6.49,5.66,12.97,8.51,19.45,2.39,5.42,4.83,10.83,7.23,16.25,2.24,5.08,4.45,10.18,6.68,15.27,2.67,6.11,5.33,12.23,8.04,18.33,2.46,5.52,5.01,11,7.45,16.53,2.19,4.95,4.26,9.94,6.42,14.9.92,2.1,1.92,4.17,2.9,6.25.13.28.35.52.64.95Z" style="fill: #06c;"/>
  </g>
</svg>